# xmcd
#
# Track frame offsets: 
#        150
#        14032
#        30775
#        56305
#        77927
#        94790
#        117085
#        136162
#        148215
#
# Disc length: 2280 seconds
#
# Revision: 0
# Processed by: cddbd v1.5.1PL2 Copyright (c) Steve Scherf et al.
# Submitted via: ExactAudioCopy v0.95b2
#
DISCID=6f08e609
DTITLE=Gary Morris - My Son... My Christmas
DYEAR=1900
DGENRE=Christmas
TTITLE0=Angels We Have Heard On High
TTITLE1=What Child Is This
TTITLE2=O Little Town Of Bethlehem/Do You Hear What I Hear
TTITLE3=Noel/Silent Night Medley
TTITLE4=I'll Be Home For Christmas
TTITLE5=O Holy Night
TTITLE6=O Come All Ye Faithful
TTITLE7=Wayfaring Stranger
TTITLE8=My Son
EXTD=
EXTT0=
EXTT1=
EXTT2=
EXTT3=
EXTT4=
EXTT5=
EXTT6=
EXTT7=
EXTT8=
PLAYORDER=
